<svg version="1.2" xmlns="http://www.w3.org/2000/svg" viewBox="0 0 32 32" width="32" height="32">
	<style>
		.s0 { fill: #000000 } 
	</style>
	<path class="s0" d="m5 5v22q0 0.4 0.15 0.77 0.16 0.36 0.44 0.64 0.28 0.28 0.64 0.44 0.37 0.15 0.77 0.15h18q0.4 0 0.77-0.15 0.36-0.16 0.64-0.44 0.28-0.28 0.44-0.64 0.15-0.37 0.15-0.77v-22q0-0.4-0.15-0.77-0.16-0.36-0.44-0.64-0.28-0.28-0.64-0.44-0.37-0.15-0.77-0.15h-18q-0.4 0-0.77 0.15-0.36 0.16-0.64 0.44-0.28 0.28-0.44 0.64-0.15 0.37-0.15 0.77zm6 22v-10h10v10zm-2-12h-2v-4h2zm0 2v4h-2v-4zm14 0h2v4h-2zm0-2v-4h2v4zm-2 0h-10v-10h10zm-12-10v4h-2v-4zm-2 18h2v4h-2zm16 4v-4h2v4zm2-22v4h-2v-4z"/>
</svg>